<mxfile host="app.diagrams.net" modified="2024-04-09T16:32:14.714Z" agent="Mozilla/5.0 (Windows NT 10.0; Win64; x64) AppleWebKit/537.36 (KHTML, like Gecko) Chrome/123.0.0.0 Safari/537.36" etag="659OHhvmizJJB2JRf1AI" version="24.2.2" type="device">
  <diagram name="Page-1" id="gfBPRSnI_GUrFYi8_Cs0">
    <mxGraphModel dx="2412" dy="810" grid="1" gridSize="10" guides="1" tooltips="1" connect="1" arrows="1" fold="1" page="1" pageScale="1" pageWidth="850" pageHeight="1100" math="0" shadow="0">
      <root>
        <mxCell id="0" />
        <mxCell id="1" parent="0" />
        <mxCell id="i_BdbYn4SVfui-p-9MxM-5" value="&lt;font style=&quot;font-size: 12px;&quot;&gt;&lt;b&gt;Push to&lt;br&gt;Github&lt;/b&gt;&lt;/font&gt;" style="edgeStyle=orthogonalEdgeStyle;rounded=0;orthogonalLoop=1;jettySize=auto;html=1;" parent="1" source="i_BdbYn4SVfui-p-9MxM-1" target="i_BdbYn4SVfui-p-9MxM-4" edge="1">
          <mxGeometry relative="1" as="geometry" />
        </mxCell>
        <mxCell id="i_BdbYn4SVfui-p-9MxM-1" value="&lt;b&gt;pipeline-cfn&lt;/b&gt;&lt;div&gt;&lt;b&gt;.yaml&lt;/b&gt;&lt;/div&gt;" style="whiteSpace=wrap;html=1;shape=mxgraph.basic.document" parent="1" vertex="1">
          <mxGeometry x="-480" y="120" width="80" height="80" as="geometry" />
        </mxCell>
        <mxCell id="i_BdbYn4SVfui-p-9MxM-16" value="&lt;font style=&quot;font-size: 12px;&quot;&gt;&lt;b&gt;Cloudformation creates&lt;br&gt;CICD pipeline &amp;amp; necessary&lt;br&gt;resources&lt;/b&gt;&lt;/font&gt;" style="edgeStyle=orthogonalEdgeStyle;rounded=0;orthogonalLoop=1;jettySize=auto;html=1;entryX=0;entryY=0.5;entryDx=0;entryDy=0;" parent="1" source="i_BdbYn4SVfui-p-9MxM-2" target="i_BdbYn4SVfui-p-9MxM-7" edge="1">
          <mxGeometry relative="1" as="geometry" />
        </mxCell>
        <mxCell id="i_BdbYn4SVfui-p-9MxM-2" value="&lt;font style=&quot;font-size: 14px;&quot;&gt;&lt;b&gt;AWS CloudFormation&lt;/b&gt;&lt;/font&gt;" style="outlineConnect=0;dashed=0;verticalLabelPosition=bottom;verticalAlign=top;align=center;html=1;shape=mxgraph.aws3.stack_aws_cloudformation;fillColor=#759C3E;gradientColor=none;" parent="1" vertex="1">
          <mxGeometry x="270" y="120" width="80" height="80" as="geometry" />
        </mxCell>
        <mxCell id="i_BdbYn4SVfui-p-9MxM-19" value="&lt;font style=&quot;font-size: 12px;&quot;&gt;&lt;b&gt;Github Workflow&lt;br&gt;triggered on&lt;br&gt;Master merge&lt;/b&gt;&lt;/font&gt;" style="edgeStyle=orthogonalEdgeStyle;rounded=0;orthogonalLoop=1;jettySize=auto;html=1;" parent="1" source="i_BdbYn4SVfui-p-9MxM-4" target="i_BdbYn4SVfui-p-9MxM-17" edge="1">
          <mxGeometry relative="1" as="geometry" />
        </mxCell>
        <mxCell id="i_BdbYn4SVfui-p-9MxM-4" value="&lt;font style=&quot;font-size: 14px;&quot;&gt;&lt;b&gt;Github&lt;/b&gt;&lt;/font&gt;" style="dashed=0;outlineConnect=0;html=1;align=center;labelPosition=center;verticalLabelPosition=bottom;verticalAlign=top;shape=mxgraph.weblogos.github" parent="1" vertex="1">
          <mxGeometry x="-290" y="120" width="80" height="80" as="geometry" />
        </mxCell>
        <mxCell id="i_BdbYn4SVfui-p-9MxM-7" value="&lt;font size=&quot;1&quot; style=&quot;&quot;&gt;&lt;b style=&quot;font-size: 16px;&quot;&gt;CI/CD INFRASTRUCTURE&lt;/b&gt;&lt;/font&gt;" style="shape=ext;double=1;rounded=0;whiteSpace=wrap;html=1;labelPosition=center;verticalLabelPosition=bottom;align=center;verticalAlign=top;" parent="1" vertex="1">
          <mxGeometry x="580" y="70" width="400" height="180" as="geometry" />
        </mxCell>
        <mxCell id="i_BdbYn4SVfui-p-9MxM-8" value="" style="sketch=0;points=[[0,0,0],[0.25,0,0],[0.5,0,0],[0.75,0,0],[1,0,0],[0,1,0],[0.25,1,0],[0.5,1,0],[0.75,1,0],[1,1,0],[0,0.25,0],[0,0.5,0],[0,0.75,0],[1,0.25,0],[1,0.5,0],[1,0.75,0]];outlineConnect=0;fontColor=#232F3E;fillColor=#7AA116;strokeColor=#ffffff;dashed=0;verticalLabelPosition=bottom;verticalAlign=top;align=center;html=1;fontSize=12;fontStyle=0;aspect=fixed;shape=mxgraph.aws4.resourceIcon;resIcon=mxgraph.aws4.s3;rotation=0;" parent="1" vertex="1">
          <mxGeometry x="620" y="90" width="50" height="50" as="geometry" />
        </mxCell>
        <mxCell id="i_BdbYn4SVfui-p-9MxM-10" value="" style="outlineConnect=0;dashed=0;verticalLabelPosition=bottom;verticalAlign=top;align=center;html=1;shape=mxgraph.aws3.codepipeline;fillColor=#759C3E;gradientColor=none;rotation=0;" parent="1" vertex="1">
          <mxGeometry x="682.5" y="151.5" width="67.5" height="81" as="geometry" />
        </mxCell>
        <mxCell id="i_BdbYn4SVfui-p-9MxM-11" value="" style="sketch=0;outlineConnect=0;fontColor=#232F3E;gradientColor=none;fillColor=#DD344C;strokeColor=none;dashed=0;verticalLabelPosition=bottom;verticalAlign=top;align=center;html=1;fontSize=12;fontStyle=0;aspect=fixed;pointerEvents=1;shape=mxgraph.aws4.role;" parent="1" vertex="1">
          <mxGeometry x="720" y="90" width="78" height="44" as="geometry" />
        </mxCell>
        <mxCell id="i_BdbYn4SVfui-p-9MxM-12" value="" style="sketch=0;outlineConnect=0;fontColor=#232F3E;gradientColor=none;fillColor=#DD344C;strokeColor=none;dashed=0;verticalLabelPosition=bottom;verticalAlign=top;align=center;html=1;fontSize=12;fontStyle=0;aspect=fixed;pointerEvents=1;shape=mxgraph.aws4.role;" parent="1" vertex="1">
          <mxGeometry x="840" y="90" width="78" height="44" as="geometry" />
        </mxCell>
        <mxCell id="i_BdbYn4SVfui-p-9MxM-13" value="" style="sketch=0;points=[[0,0,0],[0.25,0,0],[0.5,0,0],[0.75,0,0],[1,0,0],[0,1,0],[0.25,1,0],[0.5,1,0],[0.75,1,0],[1,1,0],[0,0.25,0],[0,0.5,0],[0,0.75,0],[1,0.25,0],[1,0.5,0],[1,0.75,0]];outlineConnect=0;fontColor=#232F3E;fillColor=#ED7100;strokeColor=#ffffff;dashed=0;verticalLabelPosition=bottom;verticalAlign=top;align=center;html=1;fontSize=12;fontStyle=0;aspect=fixed;shape=mxgraph.aws4.resourceIcon;resIcon=mxgraph.aws4.lambda;" parent="1" vertex="1">
          <mxGeometry x="805" y="153" width="78" height="78" as="geometry" />
        </mxCell>
        <mxCell id="i_BdbYn4SVfui-p-9MxM-17" value="&lt;font style=&quot;font-size: 14px;&quot;&gt;&lt;b&gt;Github Workflow&lt;/b&gt;&lt;/font&gt;" style="verticalLabelPosition=bottom;aspect=fixed;html=1;shape=mxgraph.salesforce.workflow;labelPosition=center;align=center;verticalAlign=top;" parent="1" vertex="1">
          <mxGeometry x="-10" y="120" width="80" height="80" as="geometry" />
        </mxCell>
        <mxCell id="i_BdbYn4SVfui-p-9MxM-20" value="&#xa;&lt;b style=&quot;forced-color-adjust: none; color: rgb(0, 0, 0); font-family: Helvetica; font-size: 12px; font-style: normal; font-variant-ligatures: normal; font-variant-caps: normal; letter-spacing: normal; orphans: 2; text-align: center; text-indent: 0px; text-transform: none; widows: 2; word-spacing: 0px; -webkit-text-stroke-width: 0px; white-space: nowrap; background-color: rgb(255, 255, 255); text-decoration-thickness: initial; text-decoration-style: initial; text-decoration-color: initial;&quot;&gt;Github Workflow deploys&lt;br style=&quot;forced-color-adjust: none;&quot;&gt;CICD Pipeline to CFN&lt;/b&gt;&#xa;&#xa;" style="edgeStyle=orthogonalEdgeStyle;rounded=0;orthogonalLoop=1;jettySize=auto;html=1;entryX=0;entryY=0.5;entryDx=0;entryDy=0;entryPerimeter=0;" parent="1" source="i_BdbYn4SVfui-p-9MxM-17" target="i_BdbYn4SVfui-p-9MxM-2" edge="1">
          <mxGeometry x="0.0303" relative="1" as="geometry">
            <mxPoint as="offset" />
          </mxGeometry>
        </mxCell>
      </root>
    </mxGraphModel>
  </diagram>
</mxfile>
